<?xml version="1.0" encoding="utf-8"?>
<!-- Generator: Adobe Illustrator 16.2.1, SVG Export Plug-In . SVG Version: 6.00 Build 0)  -->
<!DOCTYPE svg PUBLIC "-//W3C//DTD SVG 1.1//EN" "http://www.w3.org/Graphics/SVG/1.1/DTD/svg11.dtd">
<svg version="1.1" xmlns="http://www.w3.org/2000/svg" xmlns:xlink="http://www.w3.org/1999/xlink" x="0px" y="0px"
	 width="1074.447px" height="237.488px" viewBox="0 0 1074.447 237.488" enable-background="new 0 0 1074.447 237.488"
	 xml:space="preserve">
<g id="Layer_3">
</g>
<g id="Layer_1">
	<path fill="none" d="M431.678,171.262c0.295,0.335,0.582,0.646,0.866,0.953C432.26,171.91,431.973,171.596,431.678,171.262z"/>
	<path fill="none" d="M443.364,137.079c-0.417,0-0.793,0.003-1.129,0.009c-0.527,0.349-1.158,0.774-1.903,1.294l10.301,11.979
		c0.155,0.003,0.307,0.015,0.46,0.02v-8.97c-2.525-1.109-4.852-2.584-6.921-4.352C443.902,137.066,443.634,137.079,443.364,137.079z
		"/>
	<path fill="none" d="M434.634,174.315L434.634,174.315c-0.611-0.562-1.251-1.2-1.924-1.918
		C433.383,173.118,434.023,173.753,434.634,174.315z"/>
	<path fill="none" d="M471.364,93.733L471.364,93.733c1.379-0.157,2.746-0.333,4.097-0.531
		C474.109,93.399,472.743,93.576,471.364,93.733z"/>
	<path fill="none" d="M519.305,177.908c0.13,0.027,0.27,0.054,0.414,0.078C519.574,177.961,519.436,177.935,519.305,177.908z"/>
	<path fill="none" d="M518.753,177.773c0.055,0.016,0.113,0.031,0.172,0.047C518.866,177.804,518.808,177.789,518.753,177.773z"/>
	<path fill="none" d="M338.98,37.477c0.6-0.186,1.199-0.37,1.803-0.564C340.18,37.107,339.581,37.291,338.98,37.477z"/>
	<path fill="none" d="M434.334,109.765c-0.198,0.046-0.391,0.094-0.567,0.145C433.948,109.859,434.136,109.811,434.334,109.765z"/>
	<path fill="none" d="M333.281,39.129c0.709-0.191,1.42-0.385,2.135-0.589C334.701,38.745,333.991,38.938,333.281,39.129z"/>
	<path fill="none" d="M341.963,36.523c0.516-0.17,1.031-0.337,1.55-0.513C342.994,36.186,342.479,36.353,341.963,36.523z"/>
	<path fill="none" d="M345.098,35.458c0.392-0.137,0.782-0.27,1.175-0.41C345.879,35.188,345.49,35.32,345.098,35.458z"/>
	<path fill="none" d="M336.112,38.337c0.657-0.19,1.313-0.38,1.974-0.582C337.425,37.956,336.769,38.147,336.112,38.337z"/>
	<path fill="none" d="M561.955,178.026c0.371-0.051,0.722-0.107,1.052-0.17C562.676,177.918,562.327,177.975,561.955,178.026z"/>
	<path fill="none" d="M564.385,177.529c0.31-0.094,0.601-0.193,0.854-0.303C564.986,177.335,564.696,177.435,564.385,177.529z"/>
	<path fill="none" d="M563.329,177.792c0.273-0.058,0.529-0.119,0.772-0.186C563.858,177.671,563.602,177.734,563.329,177.792z"/>
	<polygon fill="none" points="855.843,151.174 855.843,151.174 855.843,151.177 	"/>
	<path fill="none" d="M852.543,165.783c-0.066,0.184-0.134,0.367-0.203,0.549C852.41,166.15,852.477,165.966,852.543,165.783z"/>
	<path fill="none" d="M520.074,178.043c0.151,0.022,0.313,0.042,0.479,0.062C520.386,178.085,520.226,178.066,520.074,178.043z"/>
	<path fill="none" d="M853.312,163.529c-0.03,0.093-0.058,0.187-0.088,0.279C853.254,163.715,853.282,163.622,853.312,163.529z"/>
	<path fill="none" d="M520.731,178.125c0.59,0.065,1.264,0.116,2.021,0.154C521.995,178.242,521.323,178.191,520.731,178.125z"/>
	<path fill="none" d="M705.981,172.427c0.026,0.129,0.054,0.249,0.082,0.367C706.035,172.675,706.007,172.556,705.981,172.427z"/>
	<path fill="none" d="M706.214,173.376c0.018,0.059,0.036,0.111,0.055,0.167C706.25,173.487,706.232,173.435,706.214,173.376z"/>
	<path fill="none" d="M560.29,178.205L560.29,178.205c0.53-0.042,1.025-0.094,1.492-0.154
		C561.314,178.111,560.819,178.163,560.29,178.205z"/>
	<path fill="none" d="M706.551,174.229c-0.02-0.04-0.046-0.073-0.065-0.115C706.505,174.156,706.532,174.189,706.551,174.229
		C706.551,174.23,706.551,174.23,706.551,174.229z"/>
	<path fill="none" d="M243.214,92.509L243.214,92.509c4.035-0.728,7.755-1.56,11.154-2.495
		C250.968,90.95,247.249,91.782,243.214,92.509z"/>
	<path fill="none" d="M330.51,39.848c0.753-0.188,1.509-0.379,2.269-0.581C332.019,39.469,331.263,39.661,330.51,39.848z"/>
	<path fill="none" d="M851.626,168.139c-0.09,0.213-0.184,0.424-0.275,0.636C851.443,168.563,851.537,168.353,851.626,168.139z"/>
	<path fill="none" d="M277.447,66.647c-0.099,0.14-0.208,0.275-0.311,0.413C277.238,66.922,277.349,66.787,277.447,66.647z"/>
	<path fill="none" d="M276.348,68.084c-0.411,0.487-0.84,0.966-1.304,1.43C275.507,69.05,275.939,68.573,276.348,68.084z"/>
	<path fill="none" d="M278.764,170.816c0.01,0.293,0.023,0.561,0.037,0.828C278.787,171.377,278.773,171.108,278.764,170.816z"/>
	<path fill="none" d="M278.733,169.57c0.003,0.229,0.011,0.435,0.016,0.651C278.744,170.005,278.737,169.798,278.733,169.57z"/>
	<polygon fill="none" points="199.421,124.951 199.421,124.951 171.059,200.208 	"/>
	<path fill="none" d="M275.044,40.082c0.464,0.464,0.894,0.943,1.305,1.43C275.94,41.024,275.508,40.546,275.044,40.082z"/>
	<path fill="none" d="M278.813,171.918c0.017,0.301,0.038,0.576,0.06,0.843C278.851,172.496,278.831,172.218,278.813,171.918z"/>
	<path fill="none" d="M277.13,42.524c0.105,0.141,0.217,0.279,0.318,0.422C277.348,42.803,277.234,42.666,277.13,42.524z"/>
	<polygon fill="none" points="279.183,63.644 279.183,63.644 279.183,63.645 	"/>
	<path fill="none" d="M278.326,44.315c0.018,0.029,0.037,0.059,0.054,0.088C278.363,44.374,278.344,44.344,278.326,44.315z"/>
	<path fill="none" d="M278.38,65.182c-0.017,0.029-0.036,0.059-0.053,0.088C278.344,65.241,278.363,65.211,278.38,65.182z"/>
	<path fill="none" d="M307.807,43.384L307.807,43.384c4.744-0.252,9.642-0.848,14.696-1.788
		C317.449,42.536,312.55,43.132,307.807,43.384z"/>
	<path fill="none" d="M322.516,41.593c0.836-0.155,1.676-0.32,2.521-0.495C324.191,41.273,323.352,41.438,322.516,41.593z"/>
	<path fill="none" d="M323.694,166.995c0.002-0.18,0.004-0.355,0.006-0.541C323.698,166.639,323.696,166.815,323.694,166.995z"/>
	<path fill="none" d="M323.666,168.662c0.004-0.194,0.008-0.396,0.012-0.599C323.674,168.266,323.67,168.468,323.666,168.662z"/>
	<path fill="none" d="M278.883,172.884c0.025,0.287,0.054,0.549,0.084,0.796C278.937,173.434,278.908,173.17,278.883,172.884z"/>
	<path fill="none" d="M327.782,40.5c0.792-0.181,1.587-0.368,2.387-0.565C329.37,40.132,328.574,40.319,327.782,40.5z"/>
	<path fill="none" d="M325.103,41.084c0.825-0.171,1.653-0.35,2.486-0.539C326.756,40.734,325.927,40.914,325.103,41.084z"/>
	<path fill="none" d="M323.374,173.443c0.02-0.139,0.037-0.301,0.055-0.461C323.411,173.142,323.393,173.304,323.374,173.443z"/>
	<path fill="none" d="M279.355,175.412c-0.157-0.365-0.285-0.932-0.384-1.698C279.07,174.483,279.198,175.046,279.355,175.412
		L279.355,175.412z"/>
	<path fill="none" d="M323.624,170.072c0.006-0.169,0.011-0.356,0.017-0.535C323.635,169.714,323.63,169.904,323.624,170.072z"/>
	<path fill="none" d="M323.538,171.716c0.012-0.187,0.025-0.368,0.036-0.571C323.562,171.348,323.55,171.531,323.538,171.716z"/>
	<path fill="none" d="M323.461,172.673c0.016-0.166,0.031-0.341,0.045-0.526C323.493,172.332,323.477,172.508,323.461,172.673z"/>
	<path fill="none" d="M778.797,201.815c-0.535-0.087-1.061-0.188-1.589-0.286C777.737,201.626,778.262,201.727,778.797,201.815z"/>
	<path fill="none" d="M844.501,180.341c-0.322,0.413-0.65,0.822-0.986,1.228C843.85,181.164,844.18,180.754,844.501,180.341z"/>
	<path fill="none" d="M768.595,199.366c-0.266-0.086-0.53-0.173-0.794-0.262C768.065,199.193,768.33,199.28,768.595,199.366z"/>
	<path fill="none" d="M840.985,184.441c-0.628,0.663-1.271,1.317-1.938,1.958C839.714,185.758,840.357,185.104,840.985,184.441z"/>
	<path fill="none" d="M765.906,198.432c-0.182-0.068-0.361-0.14-0.543-0.209C765.543,198.292,765.724,198.364,765.906,198.432z"/>
	<polygon fill="none" points="752.431,191.257 752.433,191.258 752.431,191.257 	"/>
	<path fill="none" d="M846.076,178.208c-0.277,0.395-0.557,0.788-0.846,1.176C845.519,178.997,845.798,178.603,846.076,178.208z"/>
	<path fill="none" d="M734.204,119.031c0.052-0.125,0.106-0.248,0.16-0.373C734.31,118.783,734.255,118.906,734.204,119.031z"/>
	<path fill="none" d="M735.072,117.084c0.08-0.168,0.158-0.336,0.239-0.503C735.23,116.749,735.151,116.917,735.072,117.084z"/>
	<path fill="none" d="M736.04,115.144c0.087-0.166,0.171-0.333,0.259-0.498C736.21,114.811,736.126,114.978,736.04,115.144z"/>
	<path fill="none" d="M788.638,202.812c-0.726-0.032-1.447-0.07-2.162-0.119C787.19,202.742,787.913,202.78,788.638,202.812z"/>
	<path fill="none" d="M771.359,200.189c-0.311-0.085-0.622-0.167-0.93-0.257C770.737,200.022,771.049,200.104,771.359,200.189z"/>
	<path fill="none" d="M793.087,202.923c-1.131,0-2.244-0.023-3.348-0.061C790.843,202.9,791.957,202.923,793.087,202.923z"/>
	<path fill="none" d="M785.172,202.59c-0.629-0.053-1.253-0.112-1.873-0.178C783.919,202.478,784.543,202.538,785.172,202.59z"/>
	<path fill="none" d="M774.147,200.893c-0.322-0.074-0.649-0.142-0.969-0.22C773.498,200.751,773.825,200.819,774.147,200.893z"/>
	<path fill="none" d="M842.804,182.421c-0.39,0.452-0.792,0.897-1.198,1.341C842.012,183.319,842.415,182.874,842.804,182.421z"/>
	<path fill="none" d="M781.921,202.257c-0.577-0.07-1.147-0.151-1.717-0.233C780.774,202.106,781.344,202.187,781.921,202.257z"/>
	<path fill="none" d="M754.531,192.7c-0.029-0.019-0.059-0.038-0.088-0.057C754.472,192.662,754.501,192.681,754.531,192.7z"/>
	<path fill="none" d="M850.582,170.491c-0.095,0.199-0.196,0.394-0.293,0.591C850.385,170.884,850.487,170.69,850.582,170.491z"/>
	<path fill="none" d="M848.442,174.53c-0.067,0.116-0.13,0.235-0.198,0.352C848.312,174.765,848.375,174.646,848.442,174.53z"/>
	<path fill="none" d="M847.51,176.052c-0.234,0.37-0.465,0.742-0.709,1.107C847.044,176.794,847.277,176.422,847.51,176.052z"/>
	<path fill="none" d="M826.371,92.097c1.035,0.547,2.031,1.124,3.016,1.713C828.408,93.216,827.406,92.643,826.371,92.097z"/>
	<path opacity="0.5" fill="#FFFFFF" d="M793.087,109.304c-4.302,0-8.338,1.286-12.113,3.849c-3.775,2.569-6.695,6.34-8.771,11.32
		c-2.079,4.98-3.116,11.321-3.116,19.019c0,7.924,1.018,14.489,3.061,19.698c2.035,5.205,4.849,9.053,8.43,11.547
		c3.582,2.489,7.528,3.734,11.831,3.734c6.637,0,12.338-2.811,17.092-8.436c4.757-5.619,7.13-14.354,7.13-26.204
		c0-11.471-2.207-20.094-6.619-25.867C805.595,112.192,799.954,109.304,793.087,109.304z"/>
	<path opacity="0.5" fill="#FFFFFF" d="M1042.076,59.231H991.25c-1.306,0-2.591,0.089-3.849,0.262
		c-1.258-0.173-2.543-0.262-3.849-0.262h-56.941c-1.11,0-2.206,0.065-3.282,0.19c-1.076-0.125-2.173-0.19-3.282-0.19h-59.886
		c-7.865,0-14.968,3.247-20.055,8.469c-0.222-0.119-0.437-0.244-0.659-0.362c-13.625-7.185-29.37-10.824-46.813-10.824
		c-14.552,0-28.044,2.721-40.221,8.082c0.003-0.154,0.019-0.305,0.019-0.459V42.288c0-15.464-12.536-28-28-28h-77.316
		c-3.383,0-6.625,0.6-9.627,1.699c-3.002-1.099-6.244-1.699-9.627-1.699h-77.088c-7.093,0-13.566,2.643-18.5,6.991
		c-0.31-0.326-0.611-0.657-0.931-0.977c-9.364-9.351-21.275-14.277-34.479-14.277c-12.968,0-24.802,4.948-34.224,14.308
		c-9.471,9.383-14.491,21.33-14.491,34.522c0,1.633,0.083,3.243,0.232,4.833c-1.628-0.295-3.303-0.457-5.017-0.457h-55.316V34.025
		c0-15.464-12.536-28-28-28h-10.982c-3.357,0-6.687,0.604-9.831,1.782c-12.293,4.61-23.52,7.182-33.367,7.646
		c-4.491,0.211-8.691,1.479-12.373,3.546c-9.143-8.498-20.538-12.974-33.109-12.974c-12.96,0-24.792,4.944-34.216,14.299
		c-9.479,9.39-14.5,21.338-14.5,34.531c0,1.477,0.069,2.934,0.191,4.376h-47.471c-1.305,0-2.591,0.09-3.849,0.263
		c-1.258-0.173-2.543-0.263-3.849-0.263H99.749c-1.11,0-2.206,0.064-3.282,0.19c-1.077-0.126-2.172-0.19-3.282-0.19H33.299
		c-15.464,0-28,12.536-28,28v21.848c0,11.839,7.355,21.989,17.782,26.076l27.527,74.731c4.055,11.009,14.543,18.322,26.274,18.322
		h30.226c6.28,0,12.207-2.097,16.98-5.736c4.772,3.64,10.698,5.736,16.979,5.736h29.991c11.655,0,22.091-7.22,26.201-18.126
		l1.329-3.526c2.876,12.404,13.989,21.652,27.269,21.652h69.961c1.947,0,3.847-0.199,5.682-0.578
		c1.834,0.379,3.735,0.578,5.682,0.578h64.977c1.325,0,2.629-0.092,3.905-0.271c1.276,0.179,2.581,0.271,3.906,0.271h70.189
		c2.092,0,4.128-0.236,6.089-0.672c1.961,0.436,3.997,0.672,6.089,0.672h69.957c3.238,0,6.346-0.557,9.239-1.567
		c2.893,1.011,6,1.567,9.239,1.567h77.088c3.383,0,6.625-0.6,9.627-1.699c3.002,1.1,6.244,1.699,9.627,1.699h77.316
		c7.987,0,15.188-3.35,20.289-8.715c13.794,7.592,29.979,11.43,48.367,11.43c26.551,0,48.539-8.185,65.352-24.326
		c4.745-4.558,8.838-9.575,12.304-14.97l6.726,18.259c4.055,11.009,14.543,18.322,26.274,18.322h30.224
		c6.281,0,12.207-2.097,16.98-5.736c4.773,3.639,10.699,5.736,16.981,5.736h29.994c11.655,0,22.092-7.221,26.202-18.127
		l28.241-74.954c10.373-4.101,17.71-14.218,17.71-26.049V87.231C1070.076,71.767,1057.54,59.231,1042.076,59.231z M215.214,109.079
		c-3.657,0-6.057,0.226-7.193,0.678c-1.141,0.455-2.135,1.173-2.963,2.153c-1.071,1.434-2.248,3.923-3.538,7.471l-2.099,5.57l0,0
		l-28.362,75.258h-29.991l-16.854-45.371l-17.105,45.371H76.882L47.109,119.38c-1.063-2.867-2.34-5.244-3.848-7.132
		c-0.906-1.282-1.866-2.112-2.888-2.492c-1.018-0.376-3.381-0.602-7.074-0.678V87.231h59.886v21.848h-2.492
		c-2.875,0-4.721,0.302-5.546,0.906c-1.061,0.753-1.585,1.774-1.585,3.056c0,1.132,0.343,2.756,1.019,4.868l15.809,48.812
		l13.688-38.212l-3.57-10.6c-1.065-3.171-2.368-5.395-3.905-6.68c-1.552-1.281-3.838-1.998-6.852-2.15V87.231h56.942v21.848h-4.654
		c-2.565,0-4.346,0.38-5.33,1.136c-0.976,0.756-1.472,1.847-1.472,3.281c0,1.359,0.454,3.322,1.358,5.89l13.625,40.575l13.795-40.58
		c0.904-2.641,1.354-4.643,1.354-6.001c0-1.432-0.54-2.507-1.63-3.225c-1.085-0.718-3.349-1.076-6.779-1.076h-2.569V87.231h34.434
		h16.391V109.079z M245.894,40.196c4.145-4.114,8.978-6.171,14.491-6.171c5.728,0,10.618,2.021,14.659,6.057
		c0.464,0.464,0.896,0.942,1.305,1.43c0.278,0.33,0.527,0.672,0.781,1.012c0.104,0.142,0.218,0.279,0.318,0.422
		c0.316,0.447,0.604,0.905,0.878,1.369c0.018,0.029,0.037,0.059,0.054,0.088c1.798,3.072,2.721,6.512,2.721,10.337
		c0,3.249-0.656,6.21-1.917,8.903l0,0c0,0,0,0,0,0c-0.245,0.522-0.511,1.036-0.803,1.538c-0.017,0.029-0.036,0.059-0.053,0.088
		c-0.275,0.467-0.563,0.928-0.88,1.377c-0.098,0.14-0.208,0.275-0.311,0.413c-0.256,0.345-0.508,0.691-0.789,1.024
		c-0.408,0.488-0.84,0.966-1.304,1.43c-4.041,4.039-8.931,6.057-14.659,6.057c-5.738,0-10.632-2.018-14.663-6.057
		c-4.041-4.035-6.054-8.923-6.054-14.659C239.668,49.194,241.741,44.31,245.894,40.196z M295.819,200.208h-16.636h-53.325v-21.853
		h5.998c3.918,0,6.432-0.206,7.531-0.624c1.083-0.411,1.9-1.106,2.43-2.091c0.524-0.979,0.795-2.943,0.795-5.885v-53.997h-0.209
		h-16.545V94.476c5.955-0.302,11.669-0.943,17.15-1.927c0.071-0.013,0.136-0.027,0.206-0.04l0,0
		c4.035-0.728,7.754-1.56,11.154-2.495c1.136-0.313,2.237-0.637,3.302-0.973c2.784-0.907,6.223-2.414,10.3-4.527h10.753v83.658
		c0,0.489,0.003,0.954,0.01,1.397c0.004,0.229,0.011,0.436,0.016,0.651c0.005,0.198,0.009,0.406,0.015,0.595
		c0.01,0.292,0.023,0.562,0.037,0.828c0.004,0.09,0.008,0.188,0.013,0.274c0.017,0.3,0.038,0.577,0.06,0.843
		c0.003,0.039,0.006,0.084,0.009,0.123c0.025,0.286,0.054,0.55,0.084,0.796c0.001,0.011,0.002,0.022,0.004,0.033
		c0.099,0.767,0.227,1.333,0.384,1.698l0,0c0.015,0.036,0.029,0.084,0.044,0.116c0.458,0.906,1.259,1.604,2.436,2.096
		c1.165,0.49,3.792,0.732,7.871,0.732h6.113V200.208z M450.16,200.208h-15.821h-54.368v-21.853h3.906c2.83,0,4.7-0.262,5.602-0.789
		c0.909-0.526,1.362-1.206,1.362-2.039c0-1.054-1.214-3.169-3.626-6.338l-12.986-16.653l-14.181,10.541v6.112
		c0,2.867,0.225,4.811,0.679,5.828c0.45,1.018,1.223,1.829,2.32,2.436c1.088,0.607,2.809,0.902,5.151,0.902h3.961v21.853h-48.34
		h-16.636v-21.853c2.263-0.073,3.994-0.112,5.207-0.112c4.224,0,6.938-0.282,8.152-0.849c1.197-0.564,2.072-1.524,2.603-2.888
		c0.086-0.226,0.162-0.59,0.229-1.064c0.02-0.139,0.037-0.301,0.055-0.461c0.011-0.101,0.022-0.199,0.033-0.309
		c0.016-0.165,0.031-0.342,0.045-0.526c0.011-0.138,0.021-0.283,0.031-0.431c0.012-0.186,0.025-0.368,0.036-0.571
		c0.018-0.336,0.035-0.69,0.05-1.073c0.006-0.168,0.011-0.357,0.017-0.535c0.009-0.283,0.018-0.569,0.025-0.875
		c0.004-0.193,0.008-0.396,0.012-0.599c0.006-0.343,0.012-0.699,0.016-1.068c0.002-0.18,0.004-0.355,0.006-0.541
		c0.005-0.571,0.008-1.162,0.008-1.792V65.495h-15.751h-0.774V43.421c0.207-0.01,0.416-0.026,0.624-0.037l0,0
		c4.744-0.252,9.643-0.849,14.696-1.788c0.004-0.001,0.009-0.002,0.013-0.003c0.836-0.155,1.676-0.32,2.521-0.495
		c0.022-0.004,0.044-0.01,0.066-0.014c0.825-0.171,1.653-0.351,2.486-0.539c0.064-0.015,0.129-0.031,0.193-0.045
		c0.792-0.181,1.588-0.368,2.387-0.565c0.113-0.028,0.228-0.059,0.341-0.087c0.753-0.188,1.509-0.379,2.269-0.581
		c0.167-0.045,0.335-0.093,0.502-0.138c0.709-0.191,1.42-0.385,2.135-0.589c0.231-0.065,0.464-0.137,0.696-0.204
		c0.656-0.19,1.313-0.381,1.974-0.582c0.297-0.09,0.597-0.187,0.894-0.279c0.6-0.186,1.199-0.37,1.803-0.564
		c0.392-0.126,0.787-0.26,1.18-0.39c0.516-0.17,1.031-0.337,1.55-0.513c0.525-0.179,1.056-0.367,1.584-0.552
		c0.392-0.137,0.782-0.27,1.175-0.41c0.927-0.331,1.857-0.672,2.792-1.022h10.982v101.951l21.733-18.407
		c2.333-1.961,3.715-3.226,4.133-3.793c0.408-0.564,0.624-1.114,0.624-1.641c0-0.906-0.507-1.642-1.532-2.208
		c-1.018-0.564-3.188-0.849-6.506-0.849h-4.3V87.231h61.104h8.061v21.848c-4.078,0-7.076,0.231-9.029,0.687
		c-0.198,0.046-0.387,0.094-0.567,0.145c-0.208,0.06-0.413,0.12-0.591,0.187c-2.424,0.983-6.385,3.473-11.884,7.473l-21.984,16.051
		l31.266,36.359c0.377,0.449,0.744,0.875,1.104,1.283c0.295,0.334,0.582,0.647,0.866,0.953c0.055,0.059,0.112,0.124,0.167,0.182
		c0.672,0.718,1.313,1.356,1.924,1.918l0,0c1.394,1.284,2.628,2.169,3.695,2.629c1.992,0.868,5.94,1.339,11.831,1.412V200.208z
		 M451.092,150.379c-0.154-0.005-0.306-0.017-0.46-0.02l-10.301-11.979c0.745-0.52,1.376-0.945,1.903-1.294
		c0.336-0.006,0.712-0.009,1.129-0.009c0.271,0,0.539-0.013,0.808-0.021c2.069,1.768,4.396,3.242,6.921,4.352V150.379z
		 M482.375,40.196c4.141-4.114,8.977-6.171,14.489-6.171c5.726,0,10.619,2.021,14.66,6.057c4.03,4.038,6.057,8.926,6.057,14.659
		c0,5.814-2.026,10.739-6.057,14.773c-4.041,4.039-8.935,6.057-14.66,6.057c-5.74,0-10.63-2.018-14.658-6.057
		c-4.041-4.035-6.057-8.923-6.057-14.659C476.149,49.194,478.222,44.31,482.375,40.196z M532.295,200.208h-9.522H478.16h-15.821
		v-21.853h5.997c3.919,0,6.431-0.206,7.528-0.624c1.087-0.411,1.903-1.106,2.434-2.091c0.52-0.979,0.795-2.943,0.795-5.885v-53.997
		h-8.537h-8.217V94.476c3.071-0.156,6.078-0.406,9.025-0.743l0,0c1.379-0.157,2.745-0.334,4.097-0.531
		c1.356-0.198,2.699-0.414,4.027-0.652c5.47-0.979,10.355-2.15,14.659-3.508c2.787-0.907,6.225-2.414,10.303-4.527h10.754v83.658
		c0,3.998,0.225,6.451,0.679,7.355c0.452,0.906,1.257,1.604,2.434,2.096c0.126,0.053,0.277,0.102,0.438,0.149
		c0.055,0.016,0.112,0.031,0.172,0.047c0.117,0.031,0.246,0.061,0.38,0.088c0.13,0.027,0.269,0.054,0.414,0.078
		c0.115,0.02,0.23,0.039,0.354,0.058c0.152,0.022,0.312,0.042,0.479,0.062c0.058,0.008,0.119,0.014,0.179,0.021
		c0.592,0.065,1.264,0.116,2.021,0.154c1.004,0.049,2.137,0.076,3.434,0.076h6.109V200.208z M724.431,64.137h-6.451
		c-4.384,0-7.294,0.36-8.723,1.077c-1.431,0.718-2.429,1.775-2.996,3.168c-0.568,1.397-0.852,4.697-0.852,9.906v38.233v47.345
		c0,3.85,0.189,6.695,0.571,8.562c0.026,0.129,0.054,0.248,0.082,0.367c0.048,0.205,0.098,0.404,0.151,0.582
		c0.018,0.059,0.036,0.11,0.055,0.167c0.068,0.208,0.14,0.405,0.217,0.57c0.02,0.042,0.046,0.075,0.065,0.115
		c0,0.001,0,0.001,0.001,0.001c0.717,1.481,1.784,2.546,3.216,3.165c1.476,0.644,4.846,0.961,10.134,0.961h4.529v21.853h-3.29
		h-74.026v-21.853h5.092c4.754,0,7.983-0.375,9.68-1.13c1.697-0.753,2.86-1.847,3.51-3.282c0.634-1.436,0.962-4.794,0.962-10.078
		v-33.395h-57.513v33.395c0,5.284,0.226,8.57,0.677,9.852c0.747,1.888,1.917,3.13,3.487,3.736c1.574,0.607,4.764,0.902,9.564,0.902
		h5.287v21.853h-67.565h-9.522v-21.853h5.242c1.602,0,3.023-0.051,4.274-0.151l0,0c0.529-0.042,1.025-0.094,1.492-0.154
		c0.06-0.008,0.114-0.017,0.173-0.024c0.372-0.051,0.721-0.107,1.052-0.17c0.11-0.021,0.217-0.042,0.322-0.064
		c0.273-0.058,0.529-0.12,0.772-0.186c0.095-0.026,0.195-0.05,0.285-0.077c0.311-0.094,0.601-0.193,0.854-0.303
		c1.745-0.753,2.938-1.81,3.587-3.17c0.647-1.358,0.962-4.339,0.962-8.943V79.305c0-5.357-0.314-8.845-0.962-10.471
		c-0.649-1.621-1.65-2.809-3.023-3.565c-1.365-0.753-4.017-1.132-7.966-1.132h-7.064V42.288h77.088v21.849h-7.084
		c-3.905,0-6.567,0.396-7.992,1.189c-1.429,0.792-2.434,1.924-3.033,3.396c-0.604,1.47-0.906,4.661-0.906,9.566v27.508h57.513
		V76.249c0-3.622-0.228-6.071-0.679-7.358c-0.614-1.81-1.632-3.056-3.058-3.735c-1.438-0.678-4.611-1.019-9.511-1.019h-5.996V42.288
		h77.316V64.137z M855.843,151.174c0,0.001,0,0.002,0,0.003c-0.454,4.343-1.298,8.46-2.531,12.352
		c-0.03,0.093-0.058,0.187-0.088,0.279c-0.215,0.666-0.443,1.323-0.681,1.975c-0.066,0.184-0.134,0.367-0.203,0.549
		c-0.229,0.607-0.466,1.211-0.714,1.808c-0.09,0.214-0.184,0.424-0.275,0.636c-0.249,0.576-0.501,1.15-0.77,1.716
		c-0.095,0.199-0.196,0.394-0.293,0.591c-0.575,1.173-1.188,2.324-1.847,3.448c-0.067,0.116-0.13,0.235-0.198,0.352
		c-0.236,0.396-0.487,0.781-0.733,1.171c-0.233,0.37-0.466,0.742-0.709,1.107c-0.235,0.354-0.481,0.701-0.726,1.049
		c-0.277,0.395-0.557,0.788-0.846,1.176c-0.238,0.321-0.482,0.64-0.729,0.957c-0.321,0.413-0.651,0.822-0.986,1.228
		c-0.234,0.285-0.47,0.571-0.711,0.853c-0.39,0.452-0.792,0.897-1.198,1.341c-0.207,0.226-0.409,0.456-0.621,0.679
		c-0.628,0.663-1.271,1.317-1.938,1.958c-11.474,11.016-26.789,16.524-45.96,16.524c-1.131,0-2.244-0.023-3.348-0.061
		c-0.37-0.012-0.734-0.034-1.102-0.051c-0.726-0.032-1.448-0.07-2.162-0.119c-0.438-0.03-0.87-0.066-1.304-0.103
		c-0.629-0.053-1.253-0.112-1.873-0.178c-0.462-0.049-0.922-0.099-1.378-0.155c-0.577-0.07-1.147-0.151-1.717-0.233
		c-0.471-0.068-0.943-0.133-1.407-0.209c-0.535-0.088-1.061-0.188-1.589-0.286c-1.035-0.192-2.055-0.404-3.062-0.636
		c-0.322-0.074-0.649-0.142-0.969-0.22c-0.614-0.15-1.216-0.318-1.819-0.484c-0.31-0.085-0.622-0.167-0.93-0.257
		c-0.618-0.179-1.228-0.371-1.834-0.566c-0.266-0.086-0.53-0.173-0.794-0.262c-0.638-0.215-1.271-0.438-1.896-0.672
		c-0.182-0.068-0.362-0.14-0.543-0.209c-3.866-1.487-7.477-3.328-10.832-5.523c-0.029-0.019-0.059-0.038-0.088-0.057
		c-0.68-0.447-1.351-0.908-2.01-1.385c-0.001,0-0.001-0.001-0.002-0.001l0,0c-2.098-1.516-4.101-3.163-5.985-4.975
		c-11.165-10.564-16.754-24.862-16.754-42.904c0-9.096,1.508-17.207,4.512-24.348c0.052-0.125,0.106-0.248,0.16-0.373
		c0.228-0.529,0.464-1.055,0.708-1.573c0.079-0.168,0.158-0.336,0.239-0.503c0.235-0.484,0.479-0.963,0.729-1.438
		c0.087-0.166,0.171-0.333,0.259-0.498c0.335-0.618,0.679-1.23,1.038-1.833c5.091-8.525,12.467-15.373,22.13-20.545
		c9.66-5.167,20.716-7.753,33.167-7.753c12.906,0,24.154,2.529,33.737,7.583c1.035,0.546,2.037,1.119,3.016,1.713
		c8.121,4.865,14.506,11.173,19.115,18.948c5.165,8.716,7.754,18.924,7.754,30.62C856.255,146.056,856.107,148.649,855.843,151.174
		L855.843,151.174z M1042.076,109.079c-3.656,0-6.05,0.226-7.194,0.678c-1.137,0.455-2.128,1.173-2.966,2.153
		c-1.064,1.434-2.248,3.923-3.538,7.471l-30.455,80.828h-29.994l-16.851-45.371l-17.111,45.371h-30.224l-29.771-80.828
		c-1.062-2.867-2.337-5.244-3.85-7.132c-0.907-1.282-1.868-2.112-2.887-2.492c-1.018-0.376-3.381-0.602-7.074-0.678V87.231h4.388
		h55.498v21.848h-2.493c-2.87,0-4.716,0.302-5.545,0.906c-1.062,0.753-1.585,1.774-1.585,3.056c0,1.132,0.338,2.756,1.018,4.868
		l15.809,48.812l13.691-38.212l-3.577-10.6c-1.061-3.171-2.36-5.395-3.908-6.68c-1.542-1.281-3.833-1.998-6.845-2.15V87.231h56.941
		v21.848h-4.651c-2.576,0-4.346,0.38-5.33,1.136c-0.979,0.756-1.472,1.847-1.472,3.281c0,1.359,0.45,3.322,1.359,5.89l13.618,40.575
		l13.796-40.58c0.902-2.641,1.356-4.643,1.356-6.001c0-1.432-0.547-2.507-1.632-3.225c-1.087-0.718-3.345-1.076-6.771-1.076h-2.576
		V87.231h50.826V109.079z"/>
	<path fill="#FFFFFF" d="M277.136,67.06c-0.254,0.346-0.509,0.69-0.789,1.024C276.628,67.751,276.88,67.405,277.136,67.06z"/>
	<path fill="#FFFFFF" d="M277.448,42.946c0.313,0.448,0.605,0.904,0.878,1.369C278.051,43.851,277.764,43.393,277.448,42.946z"/>
	<path fill="#FFFFFF" d="M279.183,63.645c-0.245,0.522-0.513,1.035-0.803,1.538C278.672,64.68,278.938,64.167,279.183,63.645z"/>
	<path fill="#FFFFFF" d="M276.349,41.512c0.276,0.331,0.53,0.671,0.781,1.012C276.876,42.184,276.626,41.841,276.349,41.512z"/>
	<path fill="#FFFFFF" d="M278.327,65.27c-0.273,0.468-0.566,0.927-0.88,1.377C277.763,66.198,278.051,65.737,278.327,65.27z"/>
	<path fill="#FFFFFF" d="M278.874,172.761c0.003,0.039,0.006,0.084,0.009,0.123C278.879,172.845,278.877,172.8,278.874,172.761z"/>
	<path fill="#FFFFFF" d="M278.967,173.68c0.001,0.01,0.002,0.022,0.004,0.033C278.97,173.703,278.969,173.691,278.967,173.68z"/>
	<path fill="#FFFFFF" d="M278.749,170.221c0.005,0.198,0.009,0.407,0.015,0.595C278.757,170.627,278.753,170.419,278.749,170.221z"
		/>
	<path fill="#FFFFFF" d="M254.368,90.014c1.136-0.312,2.237-0.637,3.302-0.973C256.604,89.377,255.503,89.701,254.368,90.014z"/>
	<path fill="#FFFFFF" d="M278.801,171.644c0.004,0.089,0.008,0.188,0.013,0.274C278.809,171.832,278.805,171.734,278.801,171.644z"
		/>
	<path fill="#FFFFFF" d="M278.723,168.172c0,0.489,0.003,0.954,0.01,1.397C278.726,169.126,278.723,168.662,278.723,168.172z"/>
	<path fill="#FFFFFF" d="M332.779,39.267c0.167-0.045,0.335-0.093,0.502-0.138C333.114,39.174,332.946,39.222,332.779,39.267z"/>
	<path fill="#FFFFFF" d="M335.417,38.541c0.231-0.065,0.464-0.137,0.696-0.204C335.881,38.404,335.647,38.475,335.417,38.541z"/>
	<path fill="#FFFFFF" d="M323.574,171.145c0.019-0.335,0.035-0.691,0.05-1.073C323.609,170.455,323.592,170.809,323.574,171.145z"/>
	<path fill="#FFFFFF" d="M323.507,172.147c0.011-0.137,0.021-0.284,0.031-0.431C323.528,171.864,323.518,172.009,323.507,172.147z"
		/>
	<path fill="#FFFFFF" d="M325.036,41.099c0.022-0.004,0.044-0.01,0.066-0.014C325.081,41.089,325.058,41.094,325.036,41.099z"/>
	<path fill="#FFFFFF" d="M338.086,37.755c0.297-0.09,0.597-0.187,0.894-0.279C338.683,37.569,338.383,37.666,338.086,37.755z"/>
	<path fill="#FFFFFF" d="M322.502,41.596c0.004-0.001,0.009-0.002,0.013-0.003C322.511,41.594,322.507,41.595,322.502,41.596z"/>
	<path fill="#FFFFFF" d="M323.7,166.454c0.005-0.571,0.008-1.162,0.008-1.792C323.708,165.292,323.705,165.882,323.7,166.454z"/>
	<path fill="#FFFFFF" d="M323.64,169.537c0.009-0.282,0.018-0.57,0.025-0.875C323.658,168.967,323.649,169.253,323.64,169.537z"/>
	<path fill="#FFFFFF" d="M330.169,39.935c0.113-0.028,0.228-0.059,0.341-0.087C330.396,39.876,330.282,39.907,330.169,39.935z"/>
	<path fill="#FFFFFF" d="M327.589,40.545c0.064-0.015,0.129-0.031,0.193-0.045C327.718,40.515,327.653,40.531,327.589,40.545z"/>
	<path fill="#FFFFFF" d="M323.678,168.063c0.006-0.343,0.012-0.699,0.016-1.068C323.689,167.364,323.684,167.72,323.678,168.063z"/>
	<path fill="#FFFFFF" d="M432.543,172.215c0.055,0.059,0.112,0.124,0.167,0.182C432.656,172.339,432.599,172.274,432.543,172.215z"
		/>
	<path fill="#FFFFFF" d="M323.428,172.982c0.011-0.101,0.022-0.199,0.033-0.309C323.451,172.783,323.439,172.881,323.428,172.982z"
		/>
	<path fill="#FFFFFF" d="M430.574,169.979c0.377,0.449,0.744,0.876,1.104,1.283C431.318,170.854,430.951,170.428,430.574,169.979z"
		/>
	<path fill="#FFFFFF" d="M343.513,36.01c0.525-0.179,1.056-0.367,1.584-0.552C344.569,35.643,344.039,35.831,343.513,36.01z"/>
	<path fill="#FFFFFF" d="M340.784,36.913c0.392-0.126,0.787-0.26,1.18-0.39C341.57,36.652,341.175,36.787,340.784,36.913z"/>
	<path fill="#FFFFFF" d="M346.273,35.047c0.927-0.331,1.857-0.672,2.792-1.022C348.13,34.375,347.2,34.716,346.273,35.047z"/>
	<path fill="#FFFFFF" d="M433.767,109.91c-0.213,0.059-0.413,0.12-0.591,0.187C433.354,110.03,433.559,109.969,433.767,109.91z"/>
	<path fill="#FFFFFF" d="M519.719,177.986c0.115,0.02,0.229,0.04,0.354,0.058C519.95,178.025,519.834,178.005,519.719,177.986z"/>
	<path fill="#FFFFFF" d="M518.316,177.624c0.126,0.053,0.276,0.103,0.438,0.149C518.593,177.725,518.442,177.676,518.316,177.624z"
		/>
	<path fill="#FFFFFF" d="M520.552,178.105c0.058,0.008,0.118,0.014,0.179,0.021C520.671,178.119,520.61,178.113,520.552,178.105z"/>
	<path fill="#FFFFFF" d="M518.925,177.82c0.118,0.031,0.246,0.061,0.38,0.088C519.171,177.88,519.042,177.851,518.925,177.82z"/>
	<path fill="#FFFFFF" d="M475.461,93.202c1.356-0.197,2.699-0.414,4.027-0.652C478.16,92.788,476.817,93.003,475.461,93.202z"/>
	<path fill="#FFFFFF" d="M564.101,177.606c0.095-0.026,0.195-0.05,0.285-0.077C564.295,177.556,564.196,177.58,564.101,177.606z"/>
	<path fill="#FFFFFF" d="M563.006,177.856c0.11-0.021,0.217-0.042,0.322-0.064C563.223,177.814,563.117,177.835,563.006,177.856z"/>
	<path fill="#FFFFFF" d="M706.269,173.543c0.068,0.21,0.14,0.405,0.217,0.57C706.409,173.949,706.337,173.751,706.269,173.543z"/>
	<path fill="#FFFFFF" d="M561.782,178.05c0.06-0.008,0.114-0.017,0.173-0.024C561.896,178.034,561.841,178.042,561.782,178.05z"/>
	<path fill="#FFFFFF" d="M706.063,172.794c0.048,0.206,0.098,0.402,0.151,0.582C706.161,173.199,706.111,173,706.063,172.794z"/>
	<path fill="#FFFFFF" d="M855.843,151.177c-0.454,4.343-1.3,8.459-2.531,12.352C854.545,159.637,855.389,155.52,855.843,151.177z"/>
	<path fill="#FFFFFF" d="M851.351,168.775c-0.249,0.576-0.502,1.15-0.77,1.716C850.85,169.925,851.102,169.351,851.351,168.775z"/>
	<path fill="#FFFFFF" d="M846.801,177.16c-0.235,0.354-0.481,0.7-0.726,1.049C846.32,177.861,846.566,177.513,846.801,177.16z"/>
	<path fill="#FFFFFF" d="M853.224,163.808c-0.214,0.666-0.443,1.322-0.681,1.975C852.781,165.131,853.009,164.474,853.224,163.808z"
		/>
	<path fill="#FFFFFF" d="M850.289,171.082c-0.574,1.173-1.188,2.323-1.847,3.448C849.101,173.406,849.713,172.254,850.289,171.082z"
		/>
	<path fill="#FFFFFF" d="M852.34,166.332c-0.229,0.608-0.466,1.211-0.714,1.808C851.875,167.542,852.112,166.939,852.34,166.332z"/>
	<path fill="#FFFFFF" d="M848.244,174.881c-0.236,0.396-0.488,0.781-0.733,1.171C847.756,175.663,848.007,175.277,848.244,174.881z"
		/>
	<path fill="#FFFFFF" d="M765.363,198.223c-3.864-1.489-7.478-3.327-10.832-5.523C757.886,194.895,761.497,196.736,765.363,198.223z
		"/>
	<path fill="#FFFFFF" d="M777.208,201.529c-1.034-0.192-2.056-0.403-3.062-0.636C775.154,201.125,776.173,201.336,777.208,201.529z"
		/>
	<path fill="#FFFFFF" d="M770.429,199.932c-0.617-0.18-1.228-0.37-1.834-0.566C769.202,199.561,769.811,199.753,770.429,199.932z"/>
	<path fill="#FFFFFF" d="M736.298,114.646c0.334-0.618,0.679-1.23,1.038-1.833C736.977,113.416,736.633,114.028,736.298,114.646z"/>
	<path fill="#FFFFFF" d="M780.205,202.024c-0.47-0.068-0.943-0.133-1.407-0.209C779.261,201.891,779.734,201.956,780.205,202.024z"
		/>
	<path fill="#FFFFFF" d="M773.178,200.673c-0.613-0.151-1.216-0.317-1.819-0.484C771.962,200.355,772.564,200.523,773.178,200.673z"
		/>
	<path fill="#FFFFFF" d="M754.443,192.643c-0.68-0.447-1.351-0.908-2.01-1.385C753.092,191.735,753.763,192.196,754.443,192.643z"/>
	<path fill="#FFFFFF" d="M843.515,181.569c-0.234,0.285-0.47,0.571-0.711,0.853C843.045,182.14,843.281,181.854,843.515,181.569z"/>
	<path fill="#FFFFFF" d="M735.311,116.582c0.234-0.484,0.479-0.963,0.729-1.438C735.79,115.619,735.546,116.097,735.311,116.582z"/>
	<path fill="#FFFFFF" d="M845.23,179.384c-0.238,0.321-0.482,0.64-0.729,0.957C844.748,180.024,844.992,179.706,845.23,179.384z"/>
	<path fill="#FFFFFF" d="M789.74,202.863c-0.37-0.012-0.734-0.033-1.102-0.051C789.005,202.829,789.37,202.851,789.74,202.863z"/>
	<path fill="#FFFFFF" d="M841.606,183.762c-0.207,0.226-0.409,0.456-0.621,0.679C841.197,184.218,841.399,183.988,841.606,183.762z"
		/>
	<path fill="#FFFFFF" d="M767.801,199.104c-0.638-0.216-1.271-0.438-1.896-0.672C766.531,198.666,767.164,198.889,767.801,199.104z"
		/>
	<path fill="#FFFFFF" d="M783.299,202.413c-0.461-0.049-0.922-0.099-1.378-0.155C782.377,202.314,782.837,202.364,783.299,202.413z"
		/>
	<path fill="#FFFFFF" d="M734.364,118.658c0.228-0.529,0.464-1.054,0.708-1.573C734.828,117.603,734.591,118.128,734.364,118.658z"
		/>
	<path fill="#FFFFFF" d="M786.476,202.693c-0.438-0.03-0.87-0.066-1.304-0.103C785.606,202.626,786.039,202.663,786.476,202.693z"/>
</g>
<g id="Layer_2">
	<g opacity="0.5">
		<path fill="#475348" d="M33.299,87.231h59.886v21.848h-2.492c-2.875,0-4.721,0.302-5.546,0.906
			c-1.061,0.753-1.585,1.774-1.585,3.056c0,1.132,0.343,2.756,1.019,4.868l15.809,48.812l13.688-38.212l-3.57-10.6
			c-1.065-3.171-2.368-5.395-3.905-6.68c-1.552-1.281-3.838-1.998-6.852-2.15V87.231h56.942v21.848h-4.654
			c-2.565,0-4.346,0.38-5.33,1.136c-0.976,0.756-1.472,1.847-1.472,3.281c0,1.359,0.454,3.322,1.358,5.89l13.625,40.575
			l13.795-40.58c0.904-2.641,1.354-4.643,1.354-6.001c0-1.432-0.54-2.507-1.63-3.225c-1.085-0.718-3.349-1.076-6.779-1.076h-2.569
			V87.231h50.825v21.848c-3.657,0-6.057,0.226-7.193,0.678c-1.141,0.455-2.135,1.173-2.963,2.153
			c-1.071,1.434-2.248,3.923-3.538,7.471l-30.461,80.828h-29.991l-16.854-45.371l-17.105,45.371H76.882L47.109,119.38
			c-1.063-2.867-2.34-5.244-3.848-7.132c-0.906-1.282-1.866-2.112-2.888-2.492c-1.018-0.376-3.381-0.602-7.074-0.678V87.231z"/>
	</g>
	<g opacity="0.5">
		<path fill="#475348" d="M278.723,84.515v83.658c0,3.998,0.227,6.451,0.677,7.355c0.458,0.906,1.259,1.604,2.436,2.096
			c1.165,0.49,3.792,0.732,7.871,0.732h6.113v21.853h-69.961v-21.853h5.998c3.918,0,6.432-0.206,7.531-0.624
			c1.083-0.411,1.9-1.106,2.43-2.091c0.524-0.979,0.795-2.943,0.795-5.885v-53.997h-16.754V94.476
			c5.955-0.302,11.669-0.943,17.15-1.927c5.469-0.979,10.356-2.15,14.662-3.508c2.784-0.907,6.223-2.414,10.3-4.527H278.723z
			 M260.385,34.025c5.728,0,10.618,2.021,14.659,6.057c4.031,4.038,6.057,8.926,6.057,14.659c0,5.814-2.025,10.739-6.057,14.773
			c-4.041,4.039-8.931,6.057-14.659,6.057c-5.738,0-10.632-2.018-14.663-6.057c-4.041-4.035-6.054-8.923-6.054-14.659
			c0-5.661,2.073-10.545,6.226-14.659C250.039,36.083,254.872,34.025,260.385,34.025z"/>
	</g>
	<g opacity="0.5">
		<path fill="#475348" d="M360.048,34.025v101.951l21.733-18.407c2.333-1.961,3.715-3.226,4.133-3.793
			c0.408-0.564,0.624-1.114,0.624-1.641c0-0.906-0.507-1.642-1.532-2.208c-1.018-0.564-3.188-0.849-6.506-0.849h-4.3V87.231h69.165
			v21.848c-4.979,0-8.377,0.34-10.188,1.018c-2.424,0.983-6.385,3.473-11.884,7.473l-21.984,16.051l31.266,36.359
			c3.166,3.776,5.749,6.1,7.755,6.965c1.992,0.868,5.94,1.339,11.831,1.412v21.853h-70.189v-21.853h3.906
			c2.83,0,4.7-0.262,5.602-0.789c0.909-0.526,1.362-1.206,1.362-2.039c0-1.054-1.214-3.169-3.626-6.338l-12.986-16.653
			l-14.181,10.541v6.112c0,2.867,0.225,4.811,0.679,5.828c0.45,1.018,1.223,1.829,2.32,2.436c1.088,0.607,2.809,0.902,5.151,0.902
			h3.961v21.853h-64.977v-21.853c2.263-0.073,3.994-0.112,5.207-0.112c4.224,0,6.938-0.282,8.152-0.849
			c1.197-0.564,2.072-1.524,2.603-2.888c0.372-0.974,0.563-4.261,0.563-9.846V65.495h-16.525V43.421
			c12.822-0.603,26.785-3.735,41.882-9.396H360.048z"/>
	</g>
	<g opacity="0.5">
		<path fill="#475348" d="M515.204,84.515v83.658c0,3.998,0.225,6.451,0.679,7.355c0.452,0.906,1.257,1.604,2.434,2.096
			c1.163,0.49,3.793,0.732,7.87,0.732h6.109v21.853h-69.957v-21.853h5.997c3.919,0,6.431-0.206,7.528-0.624
			c1.087-0.411,1.903-1.106,2.434-2.091c0.52-0.979,0.795-2.943,0.795-5.885v-53.997h-16.754V94.476
			c5.95-0.302,11.669-0.943,17.149-1.927c5.47-0.979,10.355-2.15,14.659-3.508c2.787-0.907,6.225-2.414,10.303-4.527H515.204z
			 M496.864,34.025c5.726,0,10.619,2.021,14.66,6.057c4.03,4.038,6.057,8.926,6.057,14.659c0,5.814-2.026,10.739-6.057,14.773
			c-4.041,4.039-8.935,6.057-14.66,6.057c-5.74,0-10.63-2.018-14.658-6.057c-4.041-4.035-6.057-8.923-6.057-14.659
			c0-5.661,2.073-10.545,6.226-14.659C486.515,36.083,491.351,34.025,496.864,34.025z"/>
	</g>
	<g opacity="0.5">
		<path fill="#93B874" d="M550.773,42.288h77.088v21.849h-7.084c-3.905,0-6.567,0.396-7.992,1.189
			c-1.429,0.792-2.434,1.924-3.033,3.396c-0.604,1.47-0.906,4.661-0.906,9.566v27.508h57.513V76.249
			c0-3.622-0.228-6.071-0.679-7.358c-0.614-1.81-1.632-3.056-3.058-3.735c-1.438-0.678-4.611-1.019-9.511-1.019h-5.996V42.288
			h77.316v21.849h-6.451c-4.384,0-7.294,0.36-8.723,1.077c-1.431,0.718-2.429,1.775-2.996,3.168
			c-0.568,1.397-0.852,4.697-0.852,9.906v85.578c0,5.284,0.354,8.701,1.076,10.248c0.717,1.547,1.811,2.645,3.282,3.281
			c1.476,0.644,4.846,0.961,10.134,0.961h4.529v21.853h-77.316v-21.853h5.092c4.754,0,7.983-0.375,9.68-1.13
			c1.697-0.753,2.86-1.847,3.51-3.282c0.634-1.436,0.962-4.794,0.962-10.078v-33.395h-57.513v33.395c0,5.284,0.226,8.57,0.677,9.852
			c0.747,1.888,1.917,3.13,3.487,3.736c1.574,0.607,4.764,0.902,9.564,0.902h5.287v21.853h-77.088v-21.853h5.242
			c4.398,0,7.475-0.375,9.225-1.13c1.745-0.753,2.938-1.81,3.587-3.17c0.647-1.358,0.962-4.339,0.962-8.943V79.305
			c0-5.357-0.314-8.845-0.962-10.471c-0.649-1.621-1.65-2.809-3.023-3.565c-1.365-0.753-4.017-1.132-7.966-1.132h-7.064V42.288z"/>
	</g>
	<g opacity="0.5">
		<path fill="#93B874" d="M792.633,84.515c12.906,0,24.154,2.529,33.737,7.583c9.58,5.06,16.964,11.944,22.131,20.661
			c5.165,8.716,7.754,18.924,7.754,30.62c0,17.66-5.735,32.001-17.208,43.021c-11.474,11.016-26.789,16.524-45.96,16.524
			c-19.545,0-35.096-5.545-46.642-16.641c-11.165-10.564-16.754-24.862-16.754-42.904c0-11.848,2.549-22.034,7.645-30.565
			c5.091-8.525,12.467-15.373,22.13-20.545C769.126,87.101,780.182,84.515,792.633,84.515z M793.087,109.304
			c-4.302,0-8.338,1.286-12.113,3.849c-3.775,2.569-6.695,6.34-8.771,11.32c-2.079,4.98-3.116,11.321-3.116,19.019
			c0,7.924,1.018,14.489,3.061,19.698c2.035,5.205,4.849,9.053,8.43,11.547c3.582,2.489,7.528,3.734,11.831,3.734
			c6.637,0,12.338-2.811,17.092-8.436c4.757-5.619,7.13-14.354,7.13-26.204c0-11.471-2.207-20.094-6.619-25.867
			C805.595,112.192,799.954,109.304,793.087,109.304z"/>
	</g>
	<g opacity="0.5">
		<path fill="#93B874" d="M860.161,87.231h59.886v21.848h-2.493c-2.87,0-4.716,0.302-5.545,0.906
			c-1.062,0.753-1.585,1.774-1.585,3.056c0,1.132,0.338,2.756,1.018,4.868l15.809,48.812l13.691-38.212l-3.577-10.6
			c-1.061-3.171-2.36-5.395-3.908-6.68c-1.542-1.281-3.833-1.998-6.845-2.15V87.231h56.941v21.848h-4.651
			c-2.576,0-4.346,0.38-5.33,1.136c-0.979,0.756-1.472,1.847-1.472,3.281c0,1.359,0.45,3.322,1.359,5.89l13.618,40.575l13.796-40.58
			c0.902-2.641,1.356-4.643,1.356-6.001c0-1.432-0.547-2.507-1.632-3.225c-1.087-0.718-3.345-1.076-6.771-1.076h-2.576V87.231
			h50.826v21.848c-3.656,0-6.05,0.226-7.194,0.678c-1.137,0.455-2.128,1.173-2.966,2.153c-1.064,1.434-2.248,3.923-3.538,7.471
			l-30.455,80.828h-29.994l-16.851-45.371l-17.111,45.371h-30.224l-29.771-80.828c-1.062-2.867-2.337-5.244-3.85-7.132
			c-0.907-1.282-1.868-2.112-2.887-2.492c-1.018-0.376-3.381-0.602-7.074-0.678V87.231z"/>
	</g>
</g>
</svg>
