<?xml version="1.0" encoding="utf-8"?>
<!-- Generator: Adobe Illustrator 15.1.0, SVG Export Plug-In  -->
<!DOCTYPE svg PUBLIC "-//W3C//DTD SVG 1.1//EN" "http://www.w3.org/Graphics/SVG/1.1/DTD/svg11.dtd" [
	<!ENTITY ns_flows "http://ns.adobe.com/Flows/1.0/">
]>
<svg version="1.1"
	 xmlns="http://www.w3.org/2000/svg" xmlns:xlink="http://www.w3.org/1999/xlink" xmlns:a="http://ns.adobe.com/AdobeSVGViewerExtensions/3.0/"
	 x="0px" y="0px" width="216px" height="37px" viewBox="-0.89 -1.317 216 37"
	 overflow="visible" enable-background="new -0.89 -1.317 216 37" xml:space="preserve">
<defs>
</defs>
<path fill="#66544A" d="M0,11.424h12.859v4.691h-0.535c-0.616,0-1.013,0.065-1.191,0.195c-0.227,0.162-0.34,0.381-0.34,0.656
	c0,0.243,0.073,0.592,0.219,1.044l3.395,10.481l2.939-8.205l-0.768-2.276c-0.227-0.68-0.507-1.158-0.838-1.434
	c-0.333-0.275-0.823-0.429-1.471-0.462v-4.691h12.227v4.691h-0.998c-0.552,0-0.934,0.082-1.145,0.244s-0.316,0.397-0.316,0.705
	c0,0.292,0.097,0.713,0.292,1.265l2.924,8.712l2.961-8.714c0.194-0.566,0.292-0.997,0.292-1.288c0-0.308-0.117-0.539-0.351-0.693
	c-0.233-0.154-0.718-0.231-1.455-0.231h-0.553v-4.691h10.914v4.691c-0.785,0-1.299,0.049-1.544,0.146
	c-0.246,0.097-0.458,0.251-0.637,0.462c-0.229,0.308-0.482,0.843-0.76,1.604l-6.54,17.355h-6.44l-3.618-9.741l-3.674,9.741h-6.49
	L2.966,18.327c-0.227-0.615-0.502-1.126-0.827-1.531c-0.194-0.275-0.401-0.454-0.62-0.535S0.794,16.132,0,16.115V11.424z"/>
<path fill="#66544A" d="M52.449,10.841v17.963c0,0.859,0.049,1.386,0.146,1.58s0.271,0.345,0.522,0.449
	c0.251,0.105,0.814,0.158,1.689,0.158h1.312v4.691H41.098v-4.691h1.288c0.842,0,1.381-0.044,1.617-0.134
	c0.234-0.089,0.409-0.238,0.522-0.449c0.113-0.211,0.17-0.632,0.17-1.265V17.549h-3.597V12.98c1.28-0.065,2.507-0.203,3.683-0.414
	c1.174-0.21,2.224-0.462,3.147-0.753c0.6-0.194,1.337-0.519,2.212-0.972H52.449z M48.511,0c1.231,0,2.281,0.434,3.148,1.3
	c0.867,0.867,1.3,1.917,1.3,3.148c0,1.248-0.434,2.305-1.3,3.172c-0.867,0.867-1.917,1.3-3.148,1.3c-1.232,0-2.281-0.433-3.148-1.3
	c-0.867-0.867-1.3-1.916-1.3-3.148c0-1.215,0.445-2.264,1.337-3.147C46.291,0.441,47.328,0,48.511,0z"/>
<path fill="#66544A" d="M70.285,0v21.891l4.667-3.952c0.502-0.421,0.798-0.693,0.887-0.814c0.089-0.122,0.134-0.239,0.134-0.353
	c0-0.194-0.109-0.352-0.328-0.474s-0.685-0.183-1.398-0.183h-0.924v-4.691h14.852v4.691c-1.07,0-1.799,0.073-2.188,0.219
	c-0.519,0.211-1.37,0.746-2.552,1.604l-4.72,3.446l6.713,7.808c0.681,0.811,1.236,1.309,1.665,1.495s1.276,0.288,2.54,0.304v4.691
	h-15.07v-4.691h0.84c0.607,0,1.008-0.057,1.202-0.17s0.292-0.259,0.292-0.438c0-0.227-0.259-0.681-0.778-1.361l-2.788-3.576
	l-3.045,2.264v1.312c0,0.616,0.048,1.033,0.146,1.252c0.097,0.219,0.263,0.393,0.498,0.522s0.604,0.194,1.106,0.194h0.851v4.691
	H58.933v-4.691c0.486-0.016,0.859-0.024,1.118-0.024c0.907,0,1.491-0.061,1.75-0.182c0.259-0.122,0.446-0.328,0.559-0.62
	c0.081-0.211,0.122-0.915,0.122-2.115V6.757h-3.549v-4.74C61.688,1.888,64.686,1.215,67.927,0H70.285z"/>
<path fill="#66544A" d="M102.729,10.841v17.963c0,0.859,0.049,1.386,0.146,1.58c0.096,0.194,0.27,0.345,0.521,0.449
	c0.252,0.105,0.814,0.158,1.689,0.158h1.312v4.691H91.377v-4.691h1.288c0.842,0,1.381-0.044,1.617-0.134
	c0.234-0.089,0.409-0.238,0.522-0.449c0.113-0.211,0.17-0.632,0.17-1.265V17.549h-3.597V12.98c1.28-0.065,2.507-0.203,3.683-0.414
	c1.174-0.21,2.224-0.462,3.147-0.753c0.6-0.194,1.338-0.519,2.213-0.972H102.729z M98.792,0c1.23,0,2.279,0.434,3.146,1.3
	c0.867,0.867,1.301,1.917,1.301,3.148c0,1.248-0.434,2.305-1.301,3.172c-0.867,0.867-1.916,1.3-3.146,1.3
	c-1.232,0-2.282-0.433-3.148-1.3c-0.867-0.867-1.3-1.916-1.3-3.148c0-1.215,0.445-2.264,1.337-3.147C96.571,0.441,97.608,0,98.792,0
	z"/>
<path fill="#768976" d="M107.629,1.774h16.554v4.691h-1.522c-0.838,0-1.41,0.085-1.716,0.255s-0.523,0.413-0.652,0.729
	c-0.129,0.316-0.193,1.001-0.193,2.054v5.907h12.348V9.066c0-0.778-0.048-1.304-0.146-1.58c-0.13-0.389-0.349-0.656-0.656-0.802
	c-0.309-0.146-0.988-0.219-2.042-0.219h-1.288V1.774h16.602v4.691h-1.386c-0.939,0-1.563,0.077-1.871,0.231
	c-0.309,0.154-0.522,0.381-0.645,0.681c-0.121,0.3-0.183,1.009-0.183,2.127V27.88c0,1.135,0.077,1.868,0.231,2.2
	c0.153,0.332,0.389,0.567,0.705,0.705c0.315,0.138,1.041,0.206,2.175,0.206h0.973v4.691h-16.602v-4.691h1.094
	c1.021,0,1.714-0.081,2.078-0.243c0.364-0.161,0.616-0.396,0.754-0.705c0.137-0.308,0.206-1.028,0.206-2.163v-7.171h-12.348v7.171
	c0,1.135,0.048,1.84,0.145,2.115c0.161,0.405,0.411,0.672,0.749,0.802c0.339,0.13,1.023,0.194,2.055,0.194h1.136v4.691h-16.554
	v-4.691h1.125c0.945,0,1.605-0.081,1.98-0.243c0.375-0.161,0.632-0.389,0.771-0.681c0.139-0.291,0.208-0.932,0.208-1.92V9.723
	c0-1.15-0.069-1.9-0.208-2.249c-0.139-0.348-0.355-0.604-0.648-0.766c-0.293-0.162-0.863-0.243-1.711-0.243h-1.517V1.774z"/>
<path fill="#768976" d="M159.813,10.841c2.771,0,5.186,0.543,7.243,1.628c2.058,1.086,3.642,2.564,4.752,4.436
	c1.11,1.872,1.665,4.063,1.665,6.575c0,3.792-1.231,6.871-3.694,9.236c-2.464,2.366-5.753,3.549-9.869,3.549
	c-4.197,0-7.535-1.19-10.015-3.573c-2.398-2.269-3.597-5.339-3.597-9.212c0-2.544,0.547-4.731,1.641-6.563
	c1.094-1.831,2.678-3.302,4.752-4.412S157.139,10.841,159.813,10.841z M159.91,16.164c-0.924,0-1.79,0.276-2.601,0.826
	c-0.811,0.551-1.438,1.361-1.884,2.431c-0.446,1.069-0.668,2.431-0.668,4.084c0,1.701,0.219,3.111,0.656,4.229
	s1.041,1.944,1.811,2.479c0.77,0.534,1.616,0.802,2.54,0.802c1.426,0,2.649-0.604,3.67-1.811c1.021-1.207,1.532-3.083,1.532-5.627
	c0-2.464-0.475-4.315-1.423-5.555C162.596,16.784,161.384,16.164,159.91,16.164z"/>
<path fill="#768976" d="M172.971,11.424h12.858v4.691h-0.534c-0.616,0-1.014,0.065-1.191,0.195c-0.227,0.162-0.34,0.381-0.34,0.656
	c0,0.243,0.072,0.592,0.219,1.044l3.395,10.481l2.939-8.205l-0.768-2.276c-0.228-0.68-0.507-1.158-0.839-1.434
	c-0.332-0.275-0.823-0.429-1.471-0.462v-4.691h12.227v4.691h-0.998c-0.553,0-0.934,0.082-1.145,0.244s-0.316,0.397-0.316,0.705
	c0,0.292,0.098,0.713,0.292,1.265l2.925,8.712l2.961-8.714c0.194-0.566,0.292-0.997,0.292-1.288c0-0.308-0.117-0.539-0.351-0.693
	c-0.233-0.154-0.718-0.231-1.455-0.231h-0.553v-4.691h10.914v4.691c-0.784,0-1.299,0.049-1.544,0.146s-0.458,0.251-0.637,0.462
	c-0.229,0.308-0.482,0.843-0.761,1.604l-6.539,17.355h-6.44l-3.618-9.741l-3.674,9.741h-6.49l-6.393-17.355
	c-0.228-0.615-0.503-1.126-0.826-1.531c-0.195-0.275-0.401-0.454-0.62-0.535s-0.726-0.129-1.52-0.146V11.424z"/>
</svg>
